<svg xmlns="http://www.w3.org/2000/svg" width="18" height="18" viewBox="0 0 18 18">
  <path id="settings" d="M6.81,2.25a.524.524,0,0,1-.363.514.485.485,0,0,1-.532-.091l-.045-.045A2.251,2.251,0,1,0,2.687,5.81l.039.039a.5.5,0,0,1-.349.84H2.25a2.25,2.25,0,0,0,0,4.5.523.523,0,0,1,.514.362.485.485,0,0,1-.092.532l-.045.044A2.251,2.251,0,1,0,5.81,15.312l.04-.038a.486.486,0,0,1,.537-.1.768.768,0,0,0,.149.048.485.485,0,0,1,.214.4v.128a2.25,2.25,0,1,0,4.5,0v-.064a.49.49,0,0,1,.3-.45.485.485,0,0,1,.532.092l.045.045a2.251,2.251,0,1,0,3.183-3.183l-.039-.039a.489.489,0,0,1-.1-.538.767.767,0,0,0,.048-.149.483.483,0,0,1,.4-.213h.128a2.25,2.25,0,0,0,0-4.5h-.065a.5.5,0,0,1-.358-.835l.045-.044a2.251,2.251,0,1,0-3.183-3.183l-.039.039a.5.5,0,0,1-.84-.349V2.25a2.25,2.25,0,0,0-4.5,0Zm.2,1.9a1.994,1.994,0,0,0,1.3-1.837V2.25a.75.75,0,0,1,1.5,0v.131a2,2,0,0,0,3.4,1.412l.045-.045a.751.751,0,1,1,1.062,1.062l-.051.051a1.986,1.986,0,0,0-.4,2.187h0a1.989,1.989,0,0,0,1.821,1.2h.067a.75.75,0,1,1,0,1.5h-.13a1.988,1.988,0,0,0-1.819,1.2.755.755,0,0,0-.054.2,1.99,1.99,0,0,0,.46,2.053l.045.045a.751.751,0,1,1-1.062,1.062l-.051-.051A2,2,0,0,0,9.75,15.682v.067a.75.75,0,0,1-1.5,0v-.13a1.988,1.988,0,0,0-1.2-1.819.749.749,0,0,0-.2-.054,1.992,1.992,0,0,0-2.053.46l-.045.046A.751.751,0,0,1,3.688,13.19l.051-.051a1.97,1.97,0,0,0,.416-2.148,1.994,1.994,0,0,0-1.837-1.3H2.25a.75.75,0,1,1,0-1.5h.13a2,2,0,0,0,1.413-3.4l-.046-.045A.751.751,0,0,1,4.809,3.688l.051.051a2.009,2.009,0,0,0,1.4.571A1.852,1.852,0,0,0,7.009,4.154ZM6,9A3,3,0,1,0,9,6,3,3,0,0,0,6,9ZM7.5,9A1.5,1.5,0,1,1,9,10.5,1.5,1.5,0,0,1,7.5,9Z" transform="translate(18 18) rotate(180)" fill="#5580be"/>
</svg>
